<svg xmlns="http://www.w3.org/2000/svg" 
     width="28" height="28" 
     viewBox="0 0 24 24" 
     fill="none" 
     stroke="#00eaff"
     stroke-width="2.2" 
     stroke-linecap="round" 
     stroke-linejoin="round">

  <path d="M22 16.5v3c0 .9-.7 1.7-1.6 1.8a18 18 0 0 1-7.9-2.8 18.3 18.3 0 0 1-5.8-5.8 18 18 0 0 1-2.8-7.9C3.8 3.7 4.6 3 5.5 3h3c.8 0 1.5.6 1.7 1.4a13 13 0 0 0 .6 2.6c.2.6 0 1.3-.4 1.8L8.2 9.9c1.3 2.9 3.7 5.3 6.6 6.6l1.1-1.1c.5-.5 1.2-.6 1.8-.4a13 13 0 0 0 2.6.6c.8.1 1.4.9 1.4 1.7z"/>
</svg>
